<?xml version="1.0" encoding="UTF-8" standalone="no"?>
<svg id="bell-Bold" xmlns="http://www.w3.org/2000/svg" width="24" height="24" viewBox="0 0 24 24"
  fill="#e15525">
  <rect id="Path" width="24" height="24" fill="rgba(255,255,255,0)" />
  <path id="bell-Bold_1_"
    d="M223.671,1905.518l-1.106-1.845a4,4,0,0,1-.569-2.056v-2.627a6.995,6.995,0,0,0-13.99,0v2.627a4,4,0,0,1-.569,2.055l-1.106,1.846A2.3,2.3,0,0,0,208.3,1909H212a3,3,0,0,0,6,0h3.7a2.3,2.3,0,0,0,1.974-3.482ZM215,1910a1,1,0,0,1-1-1h2A1,1,0,0,1,215,1910Zm6.959-3.152a.29.29,0,0,1-.262.152H208.3a.3.3,0,0,1-.258-.453l1.106-1.847a6,6,0,0,0,.854-3.083v-2.627a4.995,4.995,0,0,1,9.99,0v2.627a6,6,0,0,0,.854,3.084l1.107,1.846A.291.291,0,0,1,221.959,1906.848Z"
    transform="translate(-203 -1890)" />
</svg>