<?xml version="1.0" encoding="UTF-8" standalone="no"?>
<svg id="eye-slash-Bold" xmlns="http://www.w3.org/2000/svg" width="24" height="24"
  viewBox="0 0 24 24" fill="#729ecb">
  <rect id="Path" width="24" height="24" fill="rgba(255,255,255,0)" />
  <path id="eye-slash-Bold_1_"
    d="M416.445,1755.985a14.749,14.749,0,0,0-2.718-3.3l1.978-1.978a1,1,0,0,0-1.414-1.414l-10.463,10.463h0l-5.535,5.535a1,1,0,1,0,1.414,1.414l2.167-2.167A9.662,9.662,0,0,0,407,1766c5.069,0,8.092-3.748,9.446-5.986A3.92,3.92,0,0,0,416.445,1755.985ZM409.5,1758a2.493,2.493,0,0,1-3.411,2.325l3.235-3.235A2.465,2.465,0,0,1,409.5,1758Zm5.233.982C413.6,1760.856,411.087,1764,407,1764a7.67,7.67,0,0,1-3.659-.929l1.27-1.27a4.433,4.433,0,0,0,2.387.7,4.506,4.506,0,0,0,4.5-4.5,4.432,4.432,0,0,0-.7-2.387l1.512-1.512a12.6,12.6,0,0,1,2.419,2.912A1.941,1.941,0,0,1,414.731,1758.982Zm-15.793,2.963a15.144,15.144,0,0,1-1.382-1.929,3.92,3.92,0,0,1,0-4.029c1.354-2.239,4.376-5.987,9.446-5.987a9.947,9.947,0,0,1,2.9.432,1,1,0,0,1-.574,1.916A7.994,7.994,0,0,0,407,1752c-4.088,0-6.6,3.144-7.731,5.018a1.946,1.946,0,0,0,0,1.97,13.076,13.076,0,0,0,1.2,1.667,1,1,0,1,1-1.527,1.29Zm7.357-8.383a1,1,0,0,1,.306,1.977,2.5,2.5,0,0,0-2.065,2.064,1,1,0,0,1-.987.848,1.017,1.017,0,0,1-.154-.012,1,1,0,0,1-.836-1.141A4.453,4.453,0,0,1,406.3,1753.562Z"
    transform="translate(-395 -1746)" />
</svg>