<?xml version="1.0" encoding="UTF-8" standalone="no"?>
<svg id="eye-Bold" xmlns="http://www.w3.org/2000/svg" width="24" height="24" viewBox="0 0 24 24"
  fill="#00447c">
  <rect id="Path" width="24" height="24" fill="rgba(255,255,255,0)" />
  <path id="eye-Bold_1_"
    d="M368.444,1755.987C367.1,1753.751,364.09,1750,359,1750s-8.1,3.751-9.444,5.987a3.9,3.9,0,0,0,0,4.025c1.343,2.236,4.355,5.987,9.444,5.987s8.1-3.751,9.444-5.987A3.9,3.9,0,0,0,368.444,1755.987Zm-1.715,3C365.6,1760.857,363.105,1764,359,1764s-6.6-3.144-7.729-5.017a1.908,1.908,0,0,1,0-1.967C352.4,1755.143,354.9,1752,359,1752s6.6,3.143,7.729,5.017A1.908,1.908,0,0,1,366.729,1758.983ZM359,1753.5a4.5,4.5,0,1,0,4.5,4.5A4.506,4.506,0,0,0,359,1753.5Zm0,7a2.5,2.5,0,1,1,2.5-2.5A2.5,2.5,0,0,1,359,1760.5Z"
    transform="translate(-347 -1746)" />
</svg>