<?xml version="1.0" encoding="UTF-8" standalone="no"?>
<svg id="flag-Bold" xmlns="http://www.w3.org/2000/svg" width="24" height="24" viewBox="0 0 24 24"
  fill="#e15526">
  <rect id="Path" width="24" height="24" fill="rgba(255,255,255,0)" />
  <path id="flag-Bold_1_"
    d="M508.342,1755.447a1.006,1.006,0,0,1,0-.9l2.553-5.1A1,1,0,0,0,510,1748H500a5.006,5.006,0,0,0-5,5v13.958a1,1,0,0,0,2,0V1762h13a1,1,0,0,0,.9-1.448ZM497,1760v-7a3,3,0,0,1,3-3h8.382l-1.829,3.658a3.016,3.016,0,0,0,0,2.684l1.829,3.658H497Z"
    transform="translate(-491 -1746)" />
</svg>