<?xml version="1.0" encoding="UTF-8" standalone="no"?>
<svg id="lock-Bold" xmlns="http://www.w3.org/2000/svg" width="24" height="24" viewBox="0 0 24 24"
  fill="#6798cc">
  <rect id="Path" width="24" height="24" fill="rgba(255,255,255,0)" />
  <path id="lock-Bold_1_"
    d="M700,1755.424V1753a5,5,0,0,0-10,0v2.424a5,5,0,0,0-3,4.576v3a5.006,5.006,0,0,0,5,5h6a5.006,5.006,0,0,0,5-5v-3A5,5,0,0,0,700,1755.424ZM692,1753a3,3,0,0,1,6,0v2h-6Zm9,10a3,3,0,0,1-3,3h-6a3,3,0,0,1-3-3v-3a3,3,0,0,1,3-3h6a3,3,0,0,1,3,3Zm-5-2v1a1,1,0,0,1-2,0v-1a1,1,0,0,1,2,0Z"
    transform="translate(-683 -1746)" />
</svg>