<?xml version="1.0" encoding="UTF-8" standalone="no"?>
<svg
   width="19.999229"
   height="19.994995"
   viewBox="0 0 19.999229 19.994995"
   version="1.1"
   id="svg1"
   xmlns="http://www.w3.org/2000/svg"
   xmlns:svg="http://www.w3.org/2000/svg"
   fill="#41416e">
  <defs
     id="defs1" />
  <g
     id="magicoon-Bold"
     transform="translate(-300.99989,-2036.005)">
    <g
       id="map-Bold"
       transform="translate(299,2034)">
      <path
         id="map-Bold_1_"
         d="m 319.542,2037.461 a 2.938,2.938 0 0 0 -2.894,-0.106 l -2.211,1.135 a 0.948,0.948 0 0 1 -0.876,0 l -4.211,-2.162 a 2.957,2.957 0 0 0 -1.332,-0.323 c -0.007,0 -0.012,0 -0.019,0 -0.007,0 -0.012,0 -0.019,0 a 2.965,2.965 0 0 0 -1.333,0.323 l -3.447,1.772 a 4.069,4.069 0 0 0 -2.2,3.645 v 10.177 a 3.043,3.043 0 0 0 1.458,2.62 2.938,2.938 0 0 0 2.894,0.106 l 2.211,-1.135 a 0.948,0.948 0 0 1 0.876,0 l 4.211,2.162 a 2.96,2.96 0 0 0 1.339,0.325 h 0.012 0.012 a 2.963,2.963 0 0 0 1.339,-0.325 v 0 l 3.447,-1.771 a 4.069,4.069 0 0 0 2.2,-3.645 v -10.177 a 3.04,3.04 0 0 0 -1.457,-2.621 z m -15.1,15.4 a 0.946,0.946 0 0 1 -0.938,-0.034 1.058,1.058 0 0 1 -0.5,-0.913 v -10.177 a 2.074,2.074 0 0 1 1.115,-1.865 l 2.885,-1.482 v 13.21 a 2.813,2.813 0 0 0 -0.351,0.13 z m 4.913,-1.135 a 2.934,2.934 0 0 0 -0.351,-0.13 v -13.207 l 3.649,1.874 a 2.955,2.955 0 0 0 0.351,0.13 v 13.207 z m 9.649,-1.473 a 2.074,2.074 0 0 1 -1.115,1.865 L 315,2053.6 v -13.2 a 2.794,2.794 0 0 0 0.351,-0.13 l 2.211,-1.135 a 0.943,0.943 0 0 1 0.938,0.034 1.058,1.058 0 0 1 0.5,0.913 z"
         transform="translate(-299,-2034)" />
    </g>
  </g>
</svg>
