<?xml version="1.0" encoding="UTF-8" standalone="no"?>
<svg xmlns="http://www.w3.org/2000/svg" width="24" height="24" viewBox="0 0 24 24">
  <g id="pen-Bold" transform="translate(0.336)" fill="#00447c">
    <rect id="Path" width="24" height="24" transform="translate(-0.336)" fill="rgba(255,255,255,0)" />
    <path id="pen-Bold_1_"
      d="M799.658,1821.342a4.577,4.577,0,0,0-6.476,0l-10.533,10.533a2.981,2.981,0,0,0-.838,1.628l-.79,4.738a1.509,1.509,0,0,0,1.49,1.758,1.479,1.479,0,0,0,.248-.021l4.738-.79a2.981,2.981,0,0,0,1.628-.838l10.533-10.533a4.576,4.576,0,0,0,0-6.475Zm-11.947,15.6a.993.993,0,0,1-.542.279l-4.062.677.677-4.062a.992.992,0,0,1,.279-.542l7.906-7.906,3.648,3.648Zm10.533-10.534-1.213,1.213-3.648-3.648,1.213-1.213a2.58,2.58,0,1,1,3.648,3.648Z"
      transform="translate(-778.896 -1818)" />
  </g>
</svg>