<?xml version="1.0" encoding="UTF-8" standalone="no"?>
<svg id="plus-square-Bold" xmlns="http://www.w3.org/2000/svg" width="24" height="24" fill="#00447c"
  viewBox="0 0 24 24">
  <rect id="Path" width="24" height="24" fill="rgba(255,255,255,0)" />
  <path id="plus-square-Bold_1_"
    d="M602,1748h-6a7.008,7.008,0,0,0-7,7v6a7.008,7.008,0,0,0,7,7h6a7.008,7.008,0,0,0,7-7v-6A7.008,7.008,0,0,0,602,1748Zm5,13a5.006,5.006,0,0,1-5,5h-6a5.006,5.006,0,0,1-5-5v-6a5.006,5.006,0,0,1,5-5h6a5.006,5.006,0,0,1,5,5Zm-3-3a1,1,0,0,1-1,1h-3v3a1,1,0,0,1-2,0v-3h-3a1,1,0,0,1,0-2h3v-3a1,1,0,0,1,2,0v3h3A1,1,0,0,1,604,1758Z"
    transform="translate(-587 -1746)" />
</svg>