<?xml version="1.0" encoding="UTF-8" standalone="no"?>
<svg
   width="20"
   height="20"
   viewBox="0 0 20 20"
   version="1.1"
   id="svg1"
   xmlns="http://www.w3.org/2000/svg"
   xmlns:svg="http://www.w3.org/2000/svg"
   fill="#41416e">
  <defs
     id="defs1" />
  <g
     id="magicoon-Bold"
     transform="translate(-733,-1892)">
    <g
       id="sort-ascending-Bold"
       transform="translate(731,1890)">
      <path
         id="sort-ascending-Bold_1_"
         d="m 743,1892 a 10,10 0 1 0 10,10 10.011,10.011 0 0 0 -10,-10 z m 0,18 a 8,8 0 1 1 8,-8 8.009,8.009 0 0 1 -8,8 z m 5,-4 a 1,1 0 0 1 -1,1 h -8 a 1,1 0 0 1 0,-2 h 8 a 1,1 0 0 1 1,1 z m -8.5,-4 a 1,1 0 0 1 1,-1 h 5 a 1,1 0 0 1 0,2 h -5 a 1,1 0 0 1 -1,-1 z m 1.5,-4 a 1,1 0 0 1 1,-1 h 2 a 1,1 0 0 1 0,2 h -2 a 1,1 0 0 1 -1,-1 z"
         transform="translate(-731,-1890)" />
    </g>
  </g>
</svg>
