<?xml version="1.0" encoding="UTF-8" standalone="no"?>
<svg
   width="20.005127"
   height="18.005905"
   viewBox="0 0 20.005127 18.005905"
   version="1.1"
   id="svg1"
   xmlns="http://www.w3.org/2000/svg"
   xmlns:svg="http://www.w3.org/2000/svg"
   fill="#41416e">
  <defs
     id="defs1" />
  <g
     id="magicoon-Bold"
     transform="translate(-780.99493,-1966)">
    <g
       id="users-three-Bold"
       transform="translate(779,1962)">
      <path
         id="users-three-Bold_1_"
         d="m 791,1976 a 5,5 0 1 0 -5,-5 5.006,5.006 0 0 0 5,5 z m 0,-8 a 3,3 0 1 1 -3,3 3,3 0 0 1 3,-3 z m 7,12.4 v 0.866 a 3.592,3.592 0 0 1 -0.915,2.4 1,1 0 1 1 -1.49,-1.334 1.593,1.593 0 0 0 0.405,-1.066 v -0.866 a 2.438,2.438 0 0 0 -1.823,-2.384 0.515,0.515 0 0 0 -0.374,0.045 5.761,5.761 0 0 1 -5.594,0.01 0.511,0.511 0 0 0 -0.383,-0.052 2.437,2.437 0 0 0 -1.826,2.384 v 0.866 a 1.6,1.6 0 0 0 0.405,1.066 1,1 0 0 1 -1.49,1.334 3.593,3.593 0 0 1 -0.915,-2.4 v -0.866 a 4.432,4.432 0 0 1 3.337,-4.323 2.5,2.5 0 0 1 1.854,0.25 3.762,3.762 0 0 0 3.629,-0.01 2.529,2.529 0 0 1 1.846,-0.243 4.434,4.434 0 0 1 3.334,4.323 z m -1.942,-13.562 a 1,1 0 0 1 1.275,-0.609 4,4 0 0 1 1.334,6.752 1,1 0 0 1 -1.334,-1.49 2,2 0 0 0 -0.666,-3.378 1,1 0 0 1 -0.609,-1.275 z m 4.942,11 v 0.722 a 1,1 0 0 1 -2,0 v -0.722 a 1.865,1.865 0 0 0 -1.394,-1.825 1,1 0 0 1 0.486,-1.94 3.862,3.862 0 0 1 2.908,3.761 z m -17.667,-4.408 a 4,4 0 0 1 1.334,-6.752 1,1 0 1 1 0.666,1.884 2,2 0 0 0 -0.666,3.378 1,1 0 1 1 -1.334,1.49 z m 1.062,3.027 a 1.866,1.866 0 0 0 -1.4,1.825 V 1979 a 1,1 0 0 1 -2,0 v -0.722 a 3.863,3.863 0 0 1 2.907,-3.765 1.000218,1.000218 0 0 1 0.488,1.94 z"
         transform="translate(-779,-1962)" />
    </g>
  </g>
</svg>
