<?xml version="1.0" encoding="UTF-8" standalone="no"?>
<svg
   width="20"
   height="20"
   viewBox="0 0 20 20"
   version="1.1"
   id="svg1"
   xmlns="http://www.w3.org/2000/svg"
   xmlns:svg="http://www.w3.org/2000/svg"
   fill="#41416e">
  <defs
     id="defs1" />
  <g
     id="magicoon-Bold"
     transform="translate(-637,-1820)">
    <g
       id="trash-Bold"
       transform="translate(635,1818)">
      <path
         id="trash-Bold_1_"
         d="m 656,1823 h -3.559 a 1,1 0 0 1 -0.949,-0.683 l -0.316,-0.95 a 2,2 0 0 0 -1.9,-1.367 h -4.556 a 2,2 0 0 0 -1.9,1.368 l -0.316,0.948 A 1,1 0 0 1 641.555,1823 H 638 a 1,1 0 0 0 0,2 h 1.065 l 0.751,11.266 a 4.009,4.009 0 0 0 3.991,3.734 h 6.387 a 4.01,4.01 0 0 0 3.991,-3.734 L 654.936,1825 H 656 a 1,1 0 0 0 0,-2 z m -11.279,-1 h 4.559 l 0.316,0.95 c 0.006,0.018 0.015,0.033 0.022,0.051 h -5.234 c 0.006,-0.018 0.016,-0.034 0.022,-0.052 z m 7.468,14.133 a 2.005,2.005 0 0 1 -2,1.867 h -6.387 a 2.006,2.006 0 0 1 -2,-1.867 L 641.069,1825 h 0.49 a 3.037,3.037 0 0 0 0.317,-0.025 A 0.868,0.868 0 0 0 642,1825 h 10 a 1.063,1.063 0 0 0 0.125,-0.025 3.014,3.014 0 0 0 0.317,0.025 h 0.49 z M 650,1829 v 5 a 1,1 0 0 1 -2,0 v -5 a 1,1 0 0 1 2,0 z m -4,0 v 5 a 1,1 0 0 1 -2,0 v -5 a 1,1 0 0 1 2,0 z"
         transform="translate(-635,-1818)"
          />
    </g>
  </g>
</svg>
