<?xml version="1.0" encoding="UTF-8" standalone="no"?>
<svg
   width="16.000183"
   height="20.000336"
   viewBox="0 0 16.000183 20.000336"
   version="1.1"
   id="svg1"
   xmlns="http://www.w3.org/2000/svg"
   xmlns:svg="http://www.w3.org/2000/svg" 
   fill="#41416e">
  <defs
     id="defs1" />
  <g
     id="magicoon-Bold"
     transform="translate(-686.99991,-1964)">
    <g
       id="user-Bold"
       transform="translate(683,1962)">
      <path
         id="user-Bold_1_"
         d="m 695,1975 a 5.5,5.5 0 1 0 -5.5,-5.5 5.506,5.506 0 0 0 5.5,5.5 z m 0,-9 a 3.5,3.5 0 1 1 -3.5,3.5 3.5,3.5 0 0 1 3.5,-3.5 z m 8,13.967 v 1.011 a 4.023,4.023 0 0 1 -1.025,2.689 1.0003296,1.0003296 0 0 1 -1.491,-1.334 2.03,2.03 0 0 0 0.515,-1.355 v -1.011 a 3.01,3.01 0 0 0 -2.253,-2.942 0.765,0.765 0 0 0 -0.561,0.07 6.564,6.564 0 0 1 -6.361,0.01 0.769,0.769 0 0 0 -0.569,-0.076 3.008,3.008 0 0 0 -2.255,2.942 v 1.011 a 2.027,2.027 0 0 0 0.515,1.355 1,1 0 0 1 -1.49,1.334 4.023,4.023 0 0 1 -1.025,-2.689 v -1.011 a 5.008,5.008 0 0 1 3.767,-4.882 2.771,2.771 0 0 1 2.039,0.273 4.558,4.558 0 0 0 4.4,-0.01 2.762,2.762 0 0 1 2.031,-0.268 5.009,5.009 0 0 1 3.763,4.883 z"
         transform="translate(-683,-1962)" />
    </g>
  </g>
</svg>
