<?xml version="1.0" encoding="UTF-8" standalone="no"?>
<svg id="users-Bold" xmlns="http://www.w3.org/2000/svg" width="24" height="24" viewBox="0 0 24 24"
  fill="#6798cc">
  <rect id="Path" width="24" height="24" fill="rgba(255,255,255,0)" />
  <path id="users-Bold_1_"
    d="M748,1979.639v.507a3.751,3.751,0,0,1-.974,2.526,1,1,0,0,1-1.481-1.344,1.755,1.755,0,0,0,.456-1.183v-.507a2.686,2.686,0,0,0-2.036-2.618.648.648,0,0,0-.477.059,6.227,6.227,0,0,1-5.967.005.645.645,0,0,0-.484-.063,2.686,2.686,0,0,0-2.036,2.618v.507a1.76,1.76,0,0,0,.456,1.183,1,1,0,0,1-1.482,1.344,3.754,3.754,0,0,1-.974-2.526v-.507a4.684,4.684,0,0,1,3.554-4.56,2.694,2.694,0,0,1,1.938.256,4.2,4.2,0,0,0,4.025-.005,2.691,2.691,0,0,1,1.93-.251A4.683,4.683,0,0,1,748,1979.639Zm1.446-4.56a1,1,0,1,0-.481,1.941,2.686,2.686,0,0,1,2.036,2.618v.507a1.758,1.758,0,0,1-.456,1.183,1,1,0,1,0,1.481,1.344,3.753,3.753,0,0,0,.974-2.526v-.507A4.684,4.684,0,0,0,749.446,1975.079ZM735.5,1970a5,5,0,1,1,5,5A5.006,5.006,0,0,1,735.5,1970Zm2,0a3,3,0,1,0,3-3A3,3,0,0,0,737.5,1970Zm13,0a5,5,0,0,0-4.376-4.961,1,1,0,1,0-.247,1.984,3,3,0,0,1,1.5,5.319,1,1,0,1,0,1.251,1.56A4.979,4.979,0,0,0,750.5,1970Z"
    transform="translate(-731 -1962)" />
</svg>